<?xml version="1.0" encoding="UTF-8"?>
<svg width="1792" height="1792" version="1.1" viewBox="0 0 1792 1792" xmlns="http://www.w3.org/2000/svg"><path d="m899.72-169.98c-14.559-1e-3 -26.362 11.801-26.362 26.36v94.035c0 14.559 11.804 26.361 26.362 26.36 14.558 0 26.359-11.801 26.36-26.36v-94.035c0-14.558-11.801-26.359-26.36-26.36zm0 188.06-0.0109 0.016c-14.559-1e-3 -26.362 11.801-26.362 26.36v57.881l-586.94 258.28-0.3985 0.17384-0.0241 0.011c-1e-3 0.17044-0.31317 0.14022-0.46803 0.21129-0.0283 0.0123-0.0572 0.0264-0.0856 0.0374-0.15967 0.0737-0.31746 0.14865-0.47607 0.22465-0.0303 0.0149-0.0607 0.0304-0.0909 0.0455-0.14538 0.0701-0.29145 0.13927-0.43593 0.21129-0.0352 0.0181-0.0693 0.0381-0.10434 0.0562-0.0445 0.0219-0.089 0.0423-0.13365 0.0642-0.12831 0.0656-0.25497 0.13091-0.38246 0.19791-0.18078 0.0942-0.36106 0.19162-0.54024 0.28885-0.14642 0.0805-0.29324 0.1608-0.43861 0.24337-0.0768 0.0431-0.1536 0.0874-0.23001 0.13104l-0.0561 0.0321c-0.14552 0.0833-0.29162 0.1661-0.43595 0.25141-0.0634 0.0379-0.12652 0.0768-0.18988 0.11502-0.12064 0.0723-0.24124 0.14578-0.36106 0.21932-0.0446 0.0283-0.0893 0.0544-0.13378 0.0828-0.12173 0.076-0.24295 0.15532-0.36372 0.23269-0.0436 0.0283-0.0876 0.0544-0.13105 0.0829-0.14464 0.0927-0.28729 0.18873-0.43059 0.28349-0.14468 0.0956-0.28995 0.19122-0.43326 0.28885-0.0246 0.017-0.0475 0.0338-0.0722 0.0508-0.11886 0.0827-0.2378 0.16718-0.3557 0.2514-0.16677 0.1179-0.33272 0.23494-0.49747 0.35571-0.16393 0.12078-0.32753 0.24556-0.48943 0.36908-0.0475 0.0359-0.0943 0.0709-0.14174 0.10694-0.11516 0.0883-0.23081 0.17762-0.34501 0.26745-0.10846 0.0856-0.21611 0.1698-0.32361 0.25675-0.0969 0.0782-0.19258 0.15888-0.28884 0.23803-0.14684 0.12009-0.2937 0.24144-0.43862 0.36373-0.0589 0.0511-0.1179 0.10092-0.17652 0.15244-0.076 0.0651-0.15188 0.12954-0.22734 0.19524-0.0304 0.0262-0.0607 0.0535-0.0909 0.0802-0.10859 0.096-0.21626 0.19162-0.32362 0.28885-0.0932 0.0838-0.18572 0.16918-0.27815 0.25408-0.10092 0.0932-0.19972 0.1866-0.29954 0.28081-0.13652 0.12871-0.27218 0.25971-0.40652 0.39048l-0.0374 0.032c-0.10297 0.10078-0.20582 0.20287-0.30757 0.30488-0.14423 0.14374-0.28607 0.28982-0.42791 0.43595-0.11544 0.11954-0.23109 0.24001-0.34502 0.36106-0.0399 0.0414-0.0807 0.0812-0.12037 0.12297-0.0275 0.0294-0.0529 0.0589-0.0802 0.0882-0.0982 0.1064-0.19725 0.21332-0.29419 0.32095-0.12228 0.13543-0.24351 0.27192-0.36374 0.4092-0.0238 0.0264-0.0459 0.0537-0.0696 0.0802-0.0296 0.034-0.059 0.0675-0.0883 0.10161-0.0945 0.10927-0.19039 0.22127-0.28351 0.33164-0.0993 0.1168-0.19642 0.23232-0.29419 0.35036-0.0325 0.0387-0.0641 0.0787-0.0963 0.11762-0.0372 0.0463-0.0756 0.0926-0.11229 0.13909-0.12831 0.15807-0.25422 0.31852-0.37978 0.47872-0.109 0.13942-0.21681 0.2789-0.32362 0.41989-0.0524 0.0681-0.10599 0.13474-0.15779 0.20326-0.0772 0.1038-0.15373 0.20845-0.23001 0.31293-0.0427 0.0596-0.0858 0.11927-0.1283 0.17919-0.0697 0.0972-0.1372 0.19628-0.20594 0.29419-0.0764 0.10763-0.15215 0.2153-0.22732 0.32361-0.0275 0.0389-0.0555 0.0761-0.0829 0.11503-0.0783 0.1142-0.15572 0.22985-0.23267 0.34501-0.056 0.0841-0.11284 0.16678-0.1685 0.2514-0.0219 0.034-0.0424 0.0702-0.0642 0.10434-0.0978 0.14992-0.19623 0.30066-0.29154 0.452-0.0785 0.12365-0.15572 0.24715-0.23267 0.37176-0.0979 0.16122-0.19367 0.32402-0.28885 0.48674l-0.0374 0.0562c-0.0679 0.11516-0.13392 0.22902-0.20058 0.345-0.0485 0.085-0.0963 0.1713-0.14442 0.25675-0.0516 0.0906-0.10434 0.1816-0.15512 0.2728-0.0152 0.0274-0.0304 0.0553-0.0455 0.0828-0.04 0.0727-0.0781 0.14631-0.11763 0.21929-0.0612 0.11243-0.12173 0.22389-0.18187 0.337-0.0374 0.0719-0.0757 0.14446-0.11229 0.21663-0.0393 0.0746-0.079 0.14975-0.11762 0.22465-0.0285 0.0566-0.0546 0.1142-0.0829 0.17117-0.0915 0.18205-0.18167 0.36469-0.27013 0.54827-0.0779 0.16047-0.15456 0.31982-0.23001 0.48142-0.0236 0.0531-0.0485 0.10735-0.0722 0.16046-0.0722 0.1558-0.14399 0.31125-0.21396 0.46804-0.082 0.18594-0.16169 0.3717-0.2407 0.55896-0.0793 0.18786-0.15668 0.37784-0.23268 0.567-0.0764 0.18976-0.15154 0.37864-0.22467 0.56966-0.0726 0.18982-0.14453 0.38135-0.21396 0.57234-0.07 0.19172-0.13652 0.38483-0.20325 0.5777-0.0531 0.1531-0.10667 0.30621-0.1578 0.46-0.0423 0.1305-0.0822 0.26224-0.12297 0.39315-0.022 0.0672-0.0453 0.13337-0.0668 0.20059-0.0222 0.0719-0.0427 0.14461-0.0642 0.21663-0.0486 0.15975-0.0956 0.31833-0.14174 0.47874-0.0486 0.16543-0.0985 0.33135-0.14443 0.49745-0.0211 0.0796-0.0409 0.15861-0.0615 0.23803-0.04 0.14754-0.0797 0.29594-0.11762 0.44397-0.05 0.19757-0.0976 0.39537-0.14443 0.59373-0.046 0.19382-0.0908 0.38848-0.13365 0.58304l-0.0109 0.0482c-0.0373 0.17308-0.0723 0.34791-0.10695 0.52152-0.011 0.0627-0.0238 0.12461-0.0348 0.18722-0.0281 0.14095-0.0561 0.28129-0.083 0.42256-7e-3 0.0312-0.01 0.0625-0.016 0.0937-0.0327 0.18164-0.0638 0.36349-0.0937 0.5456-0.0297 0.17503-0.0585 0.35142-0.0856 0.52686-0.01 0.0653-0.0212 0.12995-0.0294 0.19524-0.0229 0.16183-0.0434 0.32463-0.0642 0.48676-0.023 0.16942-0.0437 0.33845-0.0642 0.50815-0.01 0.0824-0.0185 0.16348-0.0267 0.24606-0.017 0.15336-0.033 0.30912-0.0482 0.46268-0.0199 0.20351-0.0373 0.40596-0.0536 0.60978-0.0109 0.14014-0.0224 0.27963-0.032 0.41991-0.0109 0.15906-0.0212 0.31953-0.0294 0.47873-7e-3 0.0871-0.01 0.1722-0.0137 0.25942-3e-3 0.0597-5e-3 0.11941-8e-3 0.1792-7e-3 0.14962-0.01 0.29962-0.0137 0.4493l-0.011 0.12831c-4e-3 0.15059-7e-3 0.30136-8e-3 0.45199-3e-3 0.14208-4e-3 0.2831-5e-3 0.42525-3e-5 0.0283 0 0.0572 0 0.0856v712.92l-63.915 33.485c-12.896 6.7536-17.875 22.685-11.121 35.581 6.7536 12.897 22.687 17.874 35.584 11.118l64.455-33.765 591.35 364.31c0.052 0.031 0.1027 0.063 0.15512 0.093 0.0605 0.037 0.12118 0.071 0.18187 0.1068 0.1001 0.062 0.20157 0.1232 0.30222 0.182 0.0982 0.058 0.19545 0.1136 0.29418 0.1711 0.0785 0.044 0.1593 0.09 0.23804 0.1342 0.0663 0.04 0.13145 0.075 0.19791 0.1123 0.10681 0.06 0.21359 0.1205 0.32094 0.1791 0.14441 0.078 0.29045 0.1561 0.43594 0.2301 0.13694 0.073 0.27413 0.144 0.41187 0.2139 0.0701 0.038 0.13836 0.071 0.20861 0.1068 0.11721 0.06 0.23527 0.1191 0.35304 0.1765 0.07 0.034 0.14117 0.066 0.21128 0.099 0.10776 0.052 0.21543 0.104 0.32361 0.1551 0.087 0.04 0.17474 0.081 0.26211 0.1205 0.0757 0.033 0.15132 0.069 0.22732 0.1014 0.13981 0.063 0.27962 0.1246 0.4199 0.1845l0.0455 0.022c0.17918 0.078 0.35964 0.1547 0.54024 0.23 0.18596 0.078 0.37174 0.1547 0.55897 0.2273l0.0188 0.014c0.14643 0.059 0.29409 0.1178 0.44129 0.1738 0.14837 0.056 0.29756 0.1109 0.44664 0.1632 0.12762 0.048 0.25429 0.094 0.38246 0.1417 0.10776 0.04 0.21556 0.078 0.3236 0.1151 0.13515 0.045 0.27083 0.09 0.40653 0.1341 0.0263 0.014 0.0537 0.014 0.0802 0.025 0.12666 0.041 0.25524 0.083 0.38246 0.1232 0.0823 0.029 0.16348 0.055 0.24605 0.081 0.16731 0.051 0.33479 0.1014 0.50281 0.1498 0.14562 0.043 0.29248 0.084 0.43861 0.1233 0.0937 0.027 0.18703 0.053 0.28083 0.078 0.0813 0.021 0.16176 0.043 0.24337 0.064 0.15319 0.04 0.30632 0.081 0.46001 0.1177l0.0348 0.016c0.15228 0.037 0.3046 0.07 0.45733 0.104 0.0381 0.014 0.0772 0.015 0.11502 0.029 0.13146 0.031 0.26142 0.062 0.39315 0.09 0.17027 0.037 0.34275 0.071 0.5135 0.104 0.034 0.014 0.0677 0.015 0.10161 0.025 0.1268 0.025 0.25271 0.049 0.37978 0.073 0.0663 0.014 0.1342 0.019 0.20058 0.034 0.18257 0.033 0.36521 0.063 0.54827 0.093h0.016c0.13063 0.022 0.26237 0.041 0.39315 0.062 0.13447 0.021 0.26937 0.04 0.40384 0.059 0.0512 0.014 0.1012 0.015 0.15245 0.027 0.11448 0.016 0.23027 0.03 0.34502 0.045 0.17129 0.022 0.34191 0.041 0.5135 0.062 0.19969 0.023 0.39905 0.044 0.59909 0.064h0.0267c0.12214 0.014 0.24425 0.018 0.36639 0.032 0.1231 0.014 0.24585 0.015 0.36909 0.03 0.15529 0.014 0.30994 0.018 0.46536 0.032 0.20355 0.014 0.40872 0.018 0.61245 0.032 0.16477 0 0.32991 0.022 0.49478 0.022 0.0965 0 0.19217 0.014 0.28885 0.014h0.0882c0.11653 5e-4 0.23382 5e-4 0.35035 0h0.60977c0.069 1e-4 0.13945 1e-4 0.20861 0 0.13542 7e-4 0.27108 7e-4 0.40651 0 0.2037 0 0.40619-1e-3 0.60979-0.019 0.16867 0 0.33693 0 0.50548-0.019h0.10695c0.0482 0 0.096-0.014 0.14442-0.014 0.15542-0.014 0.3101-0.016 0.46536-0.032 0.39935-0.029 0.79729-0.062 1.1955-0.1014h0.0241c0.16778-0.018 0.33528-0.036 0.5028-0.056 0.15453-0.019 0.30842-0.038 0.46269-0.059 0.0482 0 0.096-0.019 0.14442-0.019 0.0341 0 0.0704-0.014 0.10435-0.014h0.0427c0.18777-0.027 0.3743-0.058 0.56165-0.085 0.0692-0.014 0.1368-0.018 0.20593-0.032 0.13269-0.022 0.26594-0.042 0.3985-0.064 0.0415 0 0.0841-0.015 0.1257-0.025 0.32477-0.057 0.64772-0.1205 0.97083-0.1844 0.16982-0.034 0.33887-0.07 0.50816-0.1068 0.0303-0.014 0.0607-0.014 0.0909-0.022 0.0341-0.014 0.0704-0.015 0.10434-0.025 0.0372-0.014 0.0729-0.015 0.10969-0.027 0.16129-0.038 0.32332-0.074 0.48408-0.1122 0.19839-0.049 0.3962-0.1 0.59374-0.1525 0.16322-0.041 0.3268-0.084 0.48942-0.1287 0.034-0.014 0.0677-0.014 0.10161-0.026 0.16324-0.045 0.32682-0.094 0.48943-0.1417 0.0333-0.014 0.0659-0.014 0.099-0.027 0.16234-0.049 0.32514-0.096 0.48676-0.1471 0.0331-0.014 0.0659-0.018 0.099-0.032 0.16044-0.052 0.319-0.1013 0.47874-0.1551 0.0341-0.014 0.0704-0.019 0.10434-0.034 0.0256-0.014 0.0493-0.014 0.0749-0.025 0.16715-0.056 0.33385-0.115 0.50014-0.1738 0.15954-0.056 0.32-0.1136 0.47874-0.1711 0.0331-0.014 0.0659-0.021 0.099-0.034 0.15765-0.059 0.31388-0.1191 0.47071-0.1792 0.0331-0.014 0.0685-0.025 0.1016-0.04 0.15674-0.062 0.3122-0.1246 0.46804-0.1872 0.0331-0.014 0.0659-0.023 0.099-0.037 0.15579-0.064 0.31048-0.1273 0.46537-0.1952 0.18729-0.079 0.37571-0.1626 0.56163-0.2461 0.0323-0.014 0.0641-0.025 0.0963-0.04 0.15393-0.069 0.30704-0.1415 0.46001-0.2113 0.0323-0.014 0.0641-0.025 0.0963-0.04l0.11229-0.053c0.14635-0.071 0.2906-0.1413 0.43594-0.2139 0.15206-0.074 0.30362-0.148 0.45466-0.2247 0.0311-0.017 0.0624-0.032 0.0937-0.048 0.15022-0.077 0.30018-0.1533 0.44931-0.2327 0.0312-0.018 0.0624-0.033 0.0937-0.051 0.14834-0.079 0.29675-0.1584 0.44397-0.2406 0.0312-0.016 0.0624-0.033 0.0937-0.051 0.14741-0.082 0.29507-0.1663 0.4413-0.2512 0.0303-0.018 0.0607-0.033 0.0909-0.051 0.0597-0.034 0.11955-0.067 0.17919-0.1013 0.11599-0.069 0.22971-0.1401 0.34501-0.2086 0.0922-0.055 0.18387-0.1123 0.27548-0.1658 0.0399-0.023 0.0807-0.048 0.12037-0.073l0.0374-0.025 0.016-0.014 589.16-362.97 61.965 32.46c12.896 6.7569 28.829 1.7793 35.584-11.118 6.7555-12.895 1.7752-28.826-11.12-35.581l-59.331-31.083v-715.08c1e-4 -0.07 1e-4 -0.1385 0-0.20861 7e-4 -0.13351 7e-4 -0.26766 0-0.40117 1e-4 -0.0701 1e-4 -0.14118 0-0.21129 0-0.13447-0.014-0.26685-0.014-0.40118v-0.0642c-0.014-0.18288-0.015-0.3655-0.022-0.54827 0-0.14401-0.015-0.28668-0.025-0.43059 0-0.11749-0.019-0.23555-0.019-0.35304v-0.0348c-0.014-0.13365-0.016-0.26767-0.032-0.40118 0-0.0701-0.016-0.13849-0.016-0.2086-0.014-0.13365-0.02-0.2678-0.034-0.40118 0-0.0691-0.022-0.13945-0.022-0.2086 0-0.0512-0.019-0.10133-0.019-0.15245-0.016-0.15165-0.033-0.30321-0.051-0.45466-0.023-0.20294-0.048-0.40728-0.075-0.60978-0.026-0.18112-0.052-0.35952-0.078-0.54025l-0.014-0.0642c0-0.0283-0.016-0.0572-0.016-0.0856-0.03-0.17262-0.059-0.34399-0.088-0.51617-0.021-0.13269-0.044-0.26596-0.067-0.39851 0-0.0274-0.014-0.0555-0.014-0.083-0.021-0.1053-0.04-0.21055-0.062-0.31558-0.027-0.1346-0.055-0.26952-0.082-0.40386v-0.0109c-0.037-0.18693-0.078-0.37267-0.1178-0.55897v-0.032c-0.03-0.13091-0.058-0.25998-0.088-0.39048-0.016-0.0682-0.033-0.13785-0.048-0.20593-0.032-0.12995-0.063-0.25812-0.096-0.3878-0.016-0.0683-0.033-0.13785-0.051-0.20593-0.014-0.0531-0.025-0.10476-0.04-0.15779-0.038-0.14424-0.079-0.28952-0.1178-0.43328-0.052-0.19465-0.1095-0.38933-0.1657-0.58303v-5e-3c-0.038-0.12803-0.072-0.2547-0.1095-0.38244-0.021-0.0674-0.041-0.13598-0.062-0.20327-0.038-0.12817-0.082-0.25483-0.1233-0.38245-0.023-0.0664-0.044-0.13187-0.067-0.19791-0.041-0.12721-0.084-0.25566-0.1259-0.38246-0.023-0.0654-0.047-0.12995-0.07-0.19524-0.045-0.12721-0.09-0.25297-0.1369-0.37977-0.023-0.0655-0.049-0.13242-0.073-0.19791-0.048-0.12625-0.094-0.2514-0.1418-0.3771-0.023-0.0645-0.048-0.12831-0.073-0.19257-0.021-0.0493-0.038-0.10065-0.059-0.14977-0.053-0.13863-0.1109-0.27667-0.1658-0.41455v-5e-3c-0.051-0.12434-0.1-0.24797-0.1524-0.37176-0.029-0.0645-0.059-0.12831-0.085-0.19256-0.014-0.0248-0.016-0.0503-0.031-0.0749-0.066-0.15583-0.1329-0.31047-0.2006-0.46536l-0.016-0.0214c-0.055-0.12255-0.1095-0.24453-0.1632-0.3664-0.032-0.0634-0.059-0.12639-0.088-0.18989-0.058-0.1216-0.1164-0.24281-0.1739-0.36372-0.03-0.0626-0.06-0.12475-0.09-0.18722-0.06-0.12064-0.1191-0.2411-0.1791-0.36105-0.031-0.0626-0.062-0.12502-0.093-0.18722-0.027-0.0493-0.052-0.0979-0.078-0.14709-0.068-0.13215-0.1388-0.26466-0.2087-0.39584-0.094-0.17985-0.1916-0.35892-0.2888-0.53756l-0.019-0.0294c-0.092-0.16911-0.1876-0.33857-0.2835-0.50548l-0.019-0.0294c-0.096-0.16654-0.1929-0.33247-0.2915-0.49747l-0.022-0.0294-0.014-0.016c-0.1013-0.16943-0.2049-0.33768-0.3076-0.50547-0.1013-0.16374-0.2021-0.32733-0.3048-0.48943l-0.022-0.0294c-0.1041-0.16187-0.21-0.32122-0.3155-0.48142l-0.022-0.0294c-0.018-0.0245-0.033-0.0475-0.051-0.0722-0.09-0.13515-0.1822-0.27006-0.2753-0.40384-0.1748-0.25328-0.351-0.50545-0.5323-0.75421-0.1788-0.24477-0.3608-0.48723-0.5455-0.72746l-0.025-0.0267c-0.1-0.1305-0.2036-0.26135-0.3049-0.39048-0.023-0.0304-0.047-0.0607-0.07-0.0909-0.1205-0.15063-0.243-0.30064-0.3663-0.44933l-0.022-0.0241c-0.1232-0.14876-0.2471-0.2972-0.3717-0.44396l-0.026-0.0267c-0.025-0.0296-0.049-0.0589-0.075-0.0882-0.1068-0.12584-0.214-0.25023-0.3236-0.37443-0.1273-0.14406-0.259-0.28859-0.3878-0.43059l-0.022-0.0241c-0.13-0.14123-0.2616-0.2808-0.3931-0.41989l-0.025-0.0267c-0.1329-0.1403-0.2683-0.28023-0.4039-0.41722l-0.022-0.0241c-0.1355-0.13611-0.2689-0.27335-0.4064-0.40919l-0.027-0.0241c-0.1355-0.13583-0.2743-0.27047-0.4117-0.40384l-0.027-0.0241c-0.1393-0.13283-0.2813-0.26265-0.4226-0.39315l-0.023-0.0241c-0.141-0.13091-0.2837-0.26004-0.428-0.3878l-0.023-0.0241c-0.1441-0.1279-0.2902-0.25393-0.436-0.37977l-0.027-0.0241c-0.1458-0.12625-0.2908-0.25065-0.4386-0.37443l-0.027-0.0188c-0.1477-0.12338-0.2967-0.24536-0.4465-0.36641l-0.03-0.0241c-0.1495-0.1205-0.3005-0.24021-0.452-0.35838-0.1609-0.12544-0.3238-0.24906-0.4868-0.37175l-0.026-0.0214c-0.1542-0.11585-0.3092-0.22896-0.4653-0.34234l-0.027-0.0214c-0.1564-0.11297-0.3125-0.22339-0.4706-0.33431l-0.027-0.0188-0.029-0.0188c-0.1584-0.11119-0.3186-0.22023-0.4787-0.32896-0.1553-0.10544-0.311-0.20994-0.468-0.31292l-0.034-0.0241c-0.1622-0.10557-0.3257-0.21008-0.4895-0.31292l-0.032-0.0188c-0.1629-0.1027-0.3275-0.20211-0.4921-0.30221l-0.025-0.0188c-0.1648-0.0998-0.3311-0.19697-0.4975-0.29419l-0.03-0.0188c-0.1669-0.0971-0.3344-0.19197-0.5028-0.28618l-0.03-0.016c-0.1682-0.0942-0.3359-0.18934-0.5055-0.28081l-0.034-0.016c-0.1698-0.0904-0.3396-0.17967-0.5109-0.26745-0.1717-0.0894-0.343-0.17796-0.5161-0.26477l-0.059-0.0294c-0.1726-0.086-0.3446-0.16842-0.5188-0.2514l-0.031-0.0188c-0.043-0.02-0.088-0.0392-0.1287-0.0589-0.1418-0.0674-0.2827-0.13269-0.4252-0.19791-0.1287-0.0575-0.2591-0.11516-0.3878-0.17117l-0.1712-0.0775-0.033-0.011-587.12-258.38v-57.881c0-14.558-11.801-26.359-26.36-26.36zm0 152.12 517.21 227.61-517.21 286.29-517.23-286.29zm-562.67 285.59 526.32 291.31v674.52l-526.32-324.24zm1125.4 0v641.59l-526.31 324.24v-674.52zm-69.67 137.1-373.14 201.61v473.05l373.14-219.92zm-979.13 1.241v454.44l373.18 224.9v-472.79zm-289.01 589.46c-4.2756-0.014-8.4883 1.0276-12.276 3.0115l-88.063 46.132c-12.896 6.7563-17.875 22.688-11.118 35.584 6.7549 12.896 22.688 17.872 35.584 11.115l88.06-46.127c12.897-6.7549 17.877-22.69 11.121-35.587-4.5435-8.6722-13.518-14.113-23.308-14.129zm1545.4 0c-9.6987 0.1096-18.552 5.5349-23.051 14.127-6.757 12.898-1.7793 28.831 11.118 35.587l88.063 46.127c12.895 6.757 28.828 1.7812 35.584-11.115 6.757-12.895 1.7785-28.828-11.118-35.584l-88.063-46.132c-3.7084-1.9427-7.8248-2.9773-12.011-3.0115z" fill-rule="evenodd" stop-color="#000000" stroke-width="0"/></svg>
