<?xml version="1.0" encoding="UTF-8"?>
<svg width="1792" height="1792" version="1.1" viewBox="0 0 1792 1792" xmlns="http://www.w3.org/2000/svg"><path d="m182.45 165.65c-89.78 0-164.09 74.306-164.09 164.09v1127.9c0 89.78 74.306 164.08 164.09 164.08h1433.2c89.78 0 164.09-74.304 164.09-164.08v-1127.9c0-89.78-74.308-164.09-164.09-164.09zm0 130h1433.2c20.008 0 34.086 14.078 34.086 34.086v560.39h-307.39l-111.76-222.51c-5.3697-11.411-13.928-20.471-25.674-27.184-11.746-6.7121-23.995-9.3971-36.748-8.0547-30.205 3.3561-49 18.793-56.383 46.312l-129.88 432.93-197.34-690.68c-4.0273-13.424-11.914-24.501-23.66-33.227-11.746-8.7258-25.003-13.088-39.77-13.088s-27.855 4.5304-39.266 13.592c-11.411 9.0614-18.794 20.641-22.15 34.736l-116.79 467.16h-394.58v-560.39c0-20.008 14.078-34.086 34.086-34.086zm543.74 392.11 191.29 671.55c4.0273 13.424 11.748 24.499 23.158 33.225 11.411 8.7257 24.499 13.09 39.266 13.09 14.095 0 26.849-4.3642 38.26-13.09s19.129-19.8 23.156-33.225l147-488.31 56.381 112.76c12.082 23.492 31.211 35.238 57.389 35.238h347.66v438.61c0 20.008-14.078 34.086-34.086 34.086h-1433.2c-20.008 0-34.086-14.078-34.086-34.086v-438.61h444.92c14.767 0 28.023-4.5304 39.77-13.592 11.746-9.0614 19.298-20.639 22.654-34.734z"/></svg>
