<?xml version="1.0" encoding="UTF-8"?>
<svg width="1792" height="1792" version="1.1" viewBox="0 0 1792 1792" xmlns="http://www.w3.org/2000/svg"><path d="m458.79 161.63c-89.78 0-164.09 74.306-164.09 164.09v1127.9c0 89.78 74.306 164.08 164.09 164.08h893.21c89.78 0 164.09-74.304 164.09-164.08v-1127.9c0-89.78-74.308-164.09-164.09-164.09zm323.41 196.61h211.47c8.1667 0 15.045 2.6877 20.633 8.0606s8.3809 11.712 8.3809 19.02c0 3.4386-1.0736 7.3072-3.2227 11.605l-110.25 298.52 255.32-63.186c3.4386-0.85966 6.017-1.2891 7.7363-1.2891 8.1668 0 15.474 3.2245 21.922 9.6719 7.7369 8.5966 9.2418 18.051 4.5137 28.367l-348.16 745.97c-5.5878 10.746-14.613 16.119-27.078 16.119-1.7193 0-4.7291-0.4294-9.0273-1.289-7.3071-2.1492-12.788-6.2324-16.441-12.25s-4.6197-12.465-2.9004-19.342l127.01-520.95-261.77 65.119c-1.7193 0.4298-4.2977 0.64453-7.7363 0.64453-7.7369 0-14.399-2.3637-19.986-7.0918-7.7369-6.4474-10.532-14.829-8.3828-25.145l129.59-531.91c1.7193-6.0176 5.1585-10.962 10.316-14.83 5.1579-3.8684 11.175-5.8027 18.053-5.8027z" fill-rule="evenodd" stop-color="#000000" stroke-width="1.0068" style="font-variation-settings:normal"/><text transform="translate(-16.385 -136.39)" fill="#000000" font-family="sans-serif" font-size="40px" style="line-height:1.25;shape-inside:url(#rect1229);white-space:pre" xml:space="preserve"/></svg>
