<?xml version="1.0" encoding="UTF-8"?>
<svg width="1792" height="1792" version="1.1" viewBox="0 0 1792 1792" xmlns="http://www.w3.org/2000/svg"><g fill-rule="evenodd" stroke-linecap="round" stroke-linejoin="round"><path d="m897.78 174.7a877.32 877.32 0 0 0-876.59 877.32 877.32 877.32 0 0 0 170.03 519.07 1404.4 886.41 0 0 1 136.37-47.576 740.44 740.44 0 0 1-169.52-471.49 740.44 740.44 0 0 1 739.75-740.44 740.44 740.44 0 0 1 0.69726 0 740.44 740.44 0 0 1 740.44 740.44 740.44 740.44 0 0 1-154.95 453.26 1404.4 886.41 0 0 1 138.25 42.611 877.32 877.32 0 0 0 153.58-495.88 877.32 877.32 0 0 0-877.32-877.32 877.32 877.32 0 0 0-0.73828 0z" stop-color="#000000" stroke-width="1.007"/><g stroke-width=".8056"><path d="m147.8 984.75h181.89l20 67.274-20 67.274h-181.89z" stop-color="#000000"/><path d="m965.79 302.29v181.89l-67.274 20-67.274-20v-181.89z" stop-color="#000000"/><path d="m411.92 471.49 128.61 128.61-31.57 63.57-63.57 31.57-128.61-128.61z" stop-color="#000000"/><path d="m1353.2 704.17 128.61-128.61-95.14-95.14-128.61 128.61 31.57 63.57z" stop-color="#000000"/><path d="m1463.8 984.75h181.89v134.55h-181.89l-20-67.274z" stop-color="#000000"/></g></g><g transform="translate(-15.92 154.34)" fill-rule="evenodd" stroke-width="0"><path transform="rotate(30)" d="m1223.7 243.74h509.75l136.99 85.748-136.99 84.167h-509.75z" stop-color="#000000"/><circle cx="902.52" cy="909.33" r="226.69" stop-color="#000000"/></g></svg>
